<mxfile host="65bd71144e">
    <diagram id="GbCjry1i6fkyyM6lCm-r" name="Page-1">
        <mxGraphModel dx="1374" dy="828" grid="1" gridSize="10" guides="1" tooltips="1" connect="1" arrows="1" fold="1" page="1" pageScale="1" pageWidth="850" pageHeight="1100" math="0" shadow="0">
            <root>
                <mxCell id="0"/>
                <mxCell id="1" parent="0"/>
                <mxCell id="4" style="edgeStyle=orthogonalEdgeStyle;orthogonalLoop=1;jettySize=auto;html=1;entryX=0.008;entryY=0.6;entryDx=0;entryDy=0;entryPerimeter=0;curved=1;strokeWidth=5;endArrow=none;endFill=0;" edge="1" parent="1" source="2" target="3">
                    <mxGeometry relative="1" as="geometry"/>
                </mxCell>
                <mxCell id="2" value="User" style="rounded=0;whiteSpace=wrap;html=1;" vertex="1" parent="1">
                    <mxGeometry x="120" y="260" width="120" height="60" as="geometry"/>
                </mxCell>
                <mxCell id="3" value="Email" style="ellipse;whiteSpace=wrap;html=1;strokeWidth=1;" vertex="1" parent="1">
                    <mxGeometry x="300" y="120" width="120" height="80" as="geometry"/>
                </mxCell>
                <mxCell id="8" value="" style="edgeStyle=orthogonalEdgeStyle;curved=1;orthogonalLoop=1;jettySize=auto;html=1;endArrow=none;endFill=0;strokeWidth=5;" edge="1" parent="1" source="7" target="2">
                    <mxGeometry relative="1" as="geometry"/>
                </mxCell>
                <mxCell id="7" value="Password" style="triangle;whiteSpace=wrap;html=1;strokeWidth=1;direction=north;" vertex="1" parent="1">
                    <mxGeometry x="100" y="430" width="250" height="100" as="geometry"/>
                </mxCell>
            </root>
        </mxGraphModel>
    </diagram>
</mxfile>